<svg xmlns="http://www.w3.org/2000/svg" viewBox="100 114 824 824" role="img" aria-label="Your Condo Manager">
<title>Your Condo Manager</title>
<rect x="149" y="490" width="230" height="284" rx="6" fill="#3D5673"/>
<rect x="171" y="554" width="42" height="42" rx="4" fill="#2DBDB0"/>
<rect x="223" y="554" width="42" height="42" rx="4" fill="#0B1B3B"/>
<rect x="275" y="554" width="42" height="42" rx="4" fill="#2DBDB0"/>
<rect x="171" y="606" width="42" height="42" rx="4" fill="#0B1B3B"/>
<rect x="223" y="606" width="42" height="42" rx="4" fill="#2DBDB0"/>
<rect x="275" y="606" width="42" height="42" rx="4" fill="#0B1B3B"/>
<rect x="171" y="658" width="42" height="42" rx="4" fill="#0B1B3B"/>
<rect x="223" y="658" width="42" height="42" rx="4" fill="#2DBDB0"/>
<rect x="275" y="658" width="42" height="42" rx="4" fill="#0B1B3B"/>
<polygon points="397,360 627,360 512,250" fill="#2DBDB0"/>
<rect x="397" y="360" width="230" height="414" rx="6" fill="#5B7DA3"/>
<rect x="439" y="432" width="42" height="42" rx="4" fill="#2DBDB0"/>
<rect x="491" y="432" width="42" height="42" rx="4" fill="#2DBDB0"/>
<rect x="543" y="432" width="42" height="42" rx="4" fill="#2DBDB0"/>
<rect x="439" y="484" width="42" height="42" rx="4" fill="#2DBDB0"/>
<rect x="491" y="484" width="42" height="42" rx="4" fill="#0B1B3B"/>
<rect x="543" y="484" width="42" height="42" rx="4" fill="#0B1B3B"/>
<rect x="439" y="536" width="42" height="42" rx="4" fill="#2DBDB0"/>
<rect x="491" y="536" width="42" height="42" rx="4" fill="#0B1B3B"/>
<rect x="543" y="536" width="42" height="42" rx="4" fill="#0B1B3B"/>
<rect x="439" y="588" width="42" height="42" rx="4" fill="#2DBDB0"/>
<rect x="491" y="588" width="42" height="42" rx="4" fill="#0B1B3B"/>
<rect x="543" y="588" width="42" height="42" rx="4" fill="#0B1B3B"/>
<rect x="439" y="640" width="42" height="42" rx="4" fill="#2DBDB0"/>
<rect x="491" y="640" width="42" height="42" rx="4" fill="#2DBDB0"/>
<rect x="543" y="640" width="42" height="42" rx="4" fill="#2DBDB0"/>
<rect x="645" y="490" width="230" height="284" rx="6" fill="#3D5673"/>
<rect x="707" y="542" width="42" height="42" rx="4" fill="#2DBDB0"/>
<rect x="759" y="542" width="42" height="42" rx="4" fill="#0B1B3B"/>
<rect x="811" y="542" width="42" height="42" rx="4" fill="#2DBDB0"/>
<rect x="707" y="594" width="42" height="42" rx="4" fill="#2DBDB0"/>
<rect x="759" y="594" width="42" height="42" rx="4" fill="#2DBDB0"/>
<rect x="811" y="594" width="42" height="42" rx="4" fill="#2DBDB0"/>
<rect x="707" y="646" width="42" height="42" rx="4" fill="#2DBDB0"/>
<rect x="759" y="646" width="42" height="42" rx="4" fill="#0B1B3B"/>
<rect x="811" y="646" width="42" height="42" rx="4" fill="#2DBDB0"/>
<rect x="141" y="774" width="742" height="6" rx="3" fill="#2DBDB0"/>
</svg>
